<mxfile host="app.diagrams.net" modified="2021-03-29T14:17:18.407Z" agent="5.0 (Macintosh; Intel Mac OS X 10_14_6) AppleWebKit/537.36 (KHTML, like Gecko) Chrome/89.0.4389.90 Safari/537.36" etag="z8qmDGsLTdl2iFNhgOyR" version="14.5.3" type="github">
  <diagram id="p4_MF_D6j72M4k3ZKv0q" name="Page-1">
    <mxGraphModel dx="2066" dy="1074" grid="1" gridSize="10" guides="1" tooltips="1" connect="1" arrows="1" fold="1" page="1" pageScale="1" pageWidth="827" pageHeight="1169" math="0" shadow="0">
      <root>
        <mxCell id="0" />
        <mxCell id="1" parent="0" />
        <mxCell id="MEjHEPSzFXnDlpXwURvM-2" value="" style="rounded=0;whiteSpace=wrap;html=1;" vertex="1" parent="1">
          <mxGeometry x="170" y="140" width="50" height="800" as="geometry" />
        </mxCell>
        <mxCell id="MEjHEPSzFXnDlpXwURvM-3" value="" style="rounded=0;whiteSpace=wrap;html=1;" vertex="1" parent="1">
          <mxGeometry x="580" y="140" width="50" height="800" as="geometry" />
        </mxCell>
        <mxCell id="MEjHEPSzFXnDlpXwURvM-5" value="" style="endArrow=classic;html=1;" edge="1" parent="1">
          <mxGeometry width="50" height="50" relative="1" as="geometry">
            <mxPoint x="222" y="190" as="sourcePoint" />
            <mxPoint x="570" y="240" as="targetPoint" />
          </mxGeometry>
        </mxCell>
        <mxCell id="MEjHEPSzFXnDlpXwURvM-7" value="SYN seq = x" style="text;html=1;align=center;verticalAlign=middle;resizable=0;points=[];autosize=1;" vertex="1" parent="1">
          <mxGeometry x="300" y="170" width="80" height="20" as="geometry" />
        </mxCell>
        <mxCell id="MEjHEPSzFXnDlpXwURvM-8" value="" style="endArrow=classic;html=1;" edge="1" parent="1">
          <mxGeometry width="50" height="50" relative="1" as="geometry">
            <mxPoint x="570" y="240" as="sourcePoint" />
            <mxPoint x="222" y="300" as="targetPoint" />
          </mxGeometry>
        </mxCell>
        <mxCell id="MEjHEPSzFXnDlpXwURvM-9" value="SYN seq = y" style="text;html=1;align=center;verticalAlign=middle;resizable=0;points=[];autosize=1;" vertex="1" parent="1">
          <mxGeometry x="280" y="250" width="80" height="20" as="geometry" />
        </mxCell>
        <mxCell id="MEjHEPSzFXnDlpXwURvM-10" value="ACK = x +1" style="text;html=1;align=center;verticalAlign=middle;resizable=0;points=[];autosize=1;" vertex="1" parent="1">
          <mxGeometry x="360" y="280" width="80" height="20" as="geometry" />
        </mxCell>
        <mxCell id="MEjHEPSzFXnDlpXwURvM-11" value="LISTEN" style="text;html=1;align=center;verticalAlign=middle;resizable=0;points=[];autosize=1;" vertex="1" parent="1">
          <mxGeometry x="640" y="150" width="60" height="20" as="geometry" />
        </mxCell>
        <mxCell id="MEjHEPSzFXnDlpXwURvM-12" value="SYN_SENT" style="text;html=1;align=center;verticalAlign=middle;resizable=0;points=[];autosize=1;" vertex="1" parent="1">
          <mxGeometry x="80" y="170" width="80" height="20" as="geometry" />
        </mxCell>
        <mxCell id="MEjHEPSzFXnDlpXwURvM-13" value="SYN_RCVD" style="text;html=1;align=center;verticalAlign=middle;resizable=0;points=[];autosize=1;" vertex="1" parent="1">
          <mxGeometry x="640" y="230" width="80" height="20" as="geometry" />
        </mxCell>
        <mxCell id="MEjHEPSzFXnDlpXwURvM-14" value="ESTABLISHED" style="text;html=1;align=center;verticalAlign=middle;resizable=0;points=[];autosize=1;" vertex="1" parent="1">
          <mxGeometry x="70" y="300" width="100" height="20" as="geometry" />
        </mxCell>
        <mxCell id="MEjHEPSzFXnDlpXwURvM-15" value="" style="endArrow=classic;html=1;exitX=1.08;exitY=0.198;exitDx=0;exitDy=0;exitPerimeter=0;" edge="1" parent="1" source="MEjHEPSzFXnDlpXwURvM-2">
          <mxGeometry width="50" height="50" relative="1" as="geometry">
            <mxPoint x="230" y="320" as="sourcePoint" />
            <mxPoint x="576" y="360" as="targetPoint" />
          </mxGeometry>
        </mxCell>
        <mxCell id="MEjHEPSzFXnDlpXwURvM-16" value="ACK = y + 1" style="text;html=1;align=center;verticalAlign=middle;resizable=0;points=[];autosize=1;" vertex="1" parent="1">
          <mxGeometry x="350" y="360" width="80" height="20" as="geometry" />
        </mxCell>
        <mxCell id="MEjHEPSzFXnDlpXwURvM-17" value="ESTABLISED" style="text;html=1;align=center;verticalAlign=middle;resizable=0;points=[];autosize=1;" vertex="1" parent="1">
          <mxGeometry x="635" y="400" width="90" height="20" as="geometry" />
        </mxCell>
        <mxCell id="MEjHEPSzFXnDlpXwURvM-18" value="CLIENT" style="whiteSpace=wrap;html=1;" vertex="1" parent="1">
          <mxGeometry x="140" y="70" width="120" height="60" as="geometry" />
        </mxCell>
        <mxCell id="MEjHEPSzFXnDlpXwURvM-19" value="SERVER" style="whiteSpace=wrap;html=1;" vertex="1" parent="1">
          <mxGeometry x="545" y="70" width="120" height="60" as="geometry" />
        </mxCell>
      </root>
    </mxGraphModel>
  </diagram>
</mxfile>
